<svg viewBox="0 0 28 30" fill="none" xmlns="http://www.w3.org/2000/svg">
<path d="M24.7985 12.7595H2.73832C0.343084 12.7595 -0.892813 10.6248 0.747758 9.32112L11.7833 0.635531C12.8661 -0.211844 14.6817 -0.211844 15.7535 0.635531L26.7781 9.32112C28.4296 10.6248 27.1938 12.7595 24.7985 12.7595Z"/>
<path d="M25.1923 16.1492V27.4095C25.1923 28.3791 24.4486 29.0554 23.1361 29.0554H20.7081C19.4066 29.0554 18.3457 28.265 18.3457 27.2954V22.366C18.3457 21.3964 17.2848 20.606 15.9832 20.606H11.51C10.2084 20.606 9.14754 21.3964 9.14754 22.366V27.2954C9.14754 28.265 8.08664 29.0554 6.78512 29.0554H5.37423C4.07271 29.0554 2.70557 28.3791 2.70557 27.4095V16.1492C2.70557 15.1796 3.76647 14.3893 5.06799 14.3893H22.8299C24.1314 14.3893 25.1923 15.1796 25.1923 16.1492Z"/>
</svg>
