<svg viewBox="0 0 25 37" fill="none" xmlns="http://www.w3.org/2000/svg">
<path d="M12.5642 0C10.4857 0 8.5118 0.793403 6.70781 1.99518C0.197772 6.31222 -1.73694 14.2929 1.62266 20.8852C4.01491 25.5639 6.98233 31.2577 9.17849 35.0964C10.4727 37.36 14.1068 37.36 15.4009 35.0964C17.6625 31.1527 20.7475 25.4939 23.2444 20.8618C26.7608 14.3396 24.9176 6.32389 18.4076 2.00684C16.6167 0.793403 14.6297 0 12.5642 0ZM14.3159 20.5468C8.73403 21.6552 3.87111 17.3149 5.11299 12.3328C5.72739 9.81253 8.00198 7.79402 10.8125 7.23397C16.3944 6.12554 21.2574 10.4659 20.0155 15.448C19.388 17.9566 17.1265 19.9868 14.3159 20.5468Z"/>
<path d="M16.3129 17.2597C18.3651 15.428 18.3775 12.4693 16.3406 10.6513C14.3037 8.83327 10.9888 8.84435 8.93658 10.6761C6.88436 12.5078 6.87194 15.4665 8.90885 17.2845C10.9458 19.1025 14.2607 19.0914 16.3129 17.2597Z"/>
</svg>
