<svg viewBox="0 0 32 26" fill="none" xmlns="http://www.w3.org/2000/svg">
<path d="M22.6085 16.0669V23.9776C22.6085 24.8608 21.8913 25.5736 21.0027 25.5736H4.72641C3.83776 25.5736 3.12061 24.8608 3.12061 23.9776V16.8417C3.12061 15.788 4.11059 15.0597 5.13955 15.2999C5.71639 15.4316 6.31662 15.5013 6.93243 15.5013C8.98256 15.5013 10.83 14.7188 12.1396 13.4636C12.7242 12.9058 13.6207 12.7896 14.2677 13.2622C15.5071 14.1764 17.0739 14.7265 18.7967 14.7265C19.4125 14.7265 20.0127 14.6568 20.5895 14.5251C21.6185 14.2849 22.6085 15.0132 22.6085 16.0669Z"/>
<path d="M31.9626 13.2545V23.35C31.9626 24.6051 30.5361 25.3334 29.5072 24.6051L24.8223 21.2813C24.4091 20.9869 24.1675 20.522 24.1675 20.0184V16.9115C24.1675 16.4388 24.3857 15.9895 24.7599 15.695L29.4448 12.0303C30.466 11.2477 31.9626 11.9683 31.9626 13.2545Z"/>
<path d="M13.2543 7.36614C13.2543 8.04021 13.153 8.69104 12.9659 9.30312C12.81 9.79124 12.6073 10.2561 12.3501 10.6822C11.1964 12.6425 9.06833 13.9519 6.62845 13.9519C5.34225 13.9519 4.134 13.5877 3.12063 12.9524C0.953576 11.5965 -0.379395 9.04744 0.0961093 6.2272C0.571614 3.40696 2.94913 1.16782 5.80996 0.82691C8.24204 0.540238 10.4481 1.56296 11.82 3.27525C12.7165 4.39869 13.2543 5.82431 13.2543 7.36614Z"/>
<path d="M25.633 5.45263C26.1085 8.27287 24.7834 10.8219 22.6085 12.1778C21.5951 12.8131 20.3869 13.1773 19.1007 13.1773C17.4091 13.1773 15.8657 12.542 14.6886 11.5038C14.2053 11.0776 14.1118 10.3803 14.3534 9.78371C14.4158 9.62876 14.4704 9.46605 14.5249 9.30334C14.712 8.69126 14.8134 8.04044 14.8134 7.36637C14.8134 6.25067 14.5327 5.19695 14.0338 4.2672C13.6363 3.53115 13.761 2.60915 14.3379 2.01256C15.7722 0.54046 17.8846 -0.27307 20.1686 0.0833338C22.9281 0.517217 25.1653 2.71762 25.633 5.45263Z"/>
</svg>
