<svg viewBox="0 0 136 138" fill="none" xmlns="http://www.w3.org/2000/svg">
<path d="M34.5443 97.5223L19.092 82.4401C17.8568 81.2338 17.831 79.2502 19.0355 78.0084L81.2943 14.1903C82.5006 12.9551 84.4842 12.9294 85.726 14.1339L101.183 29.2078C102.418 30.414 102.444 32.3976 101.24 33.6395L38.976 97.4659C37.7697 98.7011 35.7862 98.7268 34.5443 97.5223Z" fill="#FECEA8"/>
<path d="M80.0524 42.8789L72.5872 35.5993C70.8067 33.8622 70.7719 31.0058 72.5073 29.2187L80.0077 21.5247C81.7448 19.7442 84.6012 19.7094 86.3883 21.4448L93.8535 28.7244C95.6339 30.4615 95.6687 33.3179 93.9334 35.105L86.433 42.799C84.6893 44.5813 81.8347 44.6226 80.0524 42.8789Z" fill="#FF847B"/>
<path d="M64.3402 58.9807L56.875 51.701C55.0945 49.9639 55.0597 47.1075 56.7951 45.3204L64.2954 37.6264C66.0326 35.8459 68.889 35.8111 70.6761 37.5465L78.1412 44.8261C79.9217 46.5633 79.9565 49.4197 78.2212 51.2067L70.7208 58.9007C68.9837 60.6812 66.129 60.7226 64.3402 58.9807Z" fill="#FF847B"/>
<path d="M48.6347 75.0806L41.1695 67.801C39.389 66.0638 39.3542 63.2074 41.0896 61.4203L48.5899 53.7263C50.3271 51.9459 53.1835 51.9111 54.9705 53.6464L62.4357 60.926C64.2162 62.6632 64.251 65.5196 62.5156 67.3067L55.0153 75.0007C53.2716 76.7829 50.4235 76.8225 48.6347 75.0806Z" fill="#FF847B"/>
<path d="M33.0536 90.8297L25.5884 83.5501C23.8079 81.813 23.7731 78.9566 25.5085 77.1695L33.0088 69.4755C34.746 67.695 37.6024 67.6602 39.3894 69.3956L46.8546 76.6752C48.6351 78.4123 48.6699 81.2687 46.9345 83.0558L39.4342 90.7498C37.6904 92.5321 34.834 92.5668 33.0536 90.8297Z" fill="#FF847B"/>
<path d="M14.5837 78.0419L13.4748 76.964C12.221 75.7416 12.1966 73.7364 13.4191 72.4827L75.6275 8.71354C76.85 7.45981 78.8551 7.43536 80.1088 8.65783L81.2177 9.73575C82.4715 10.9582 82.4959 12.9633 81.2734 14.2171L19.065 77.9862C17.8426 79.24 15.8309 79.2662 14.5837 78.0419Z" fill="#FF847B"/>
<path d="M40.1922 103.032L39.0242 101.893C37.789 100.686 37.765 98.7093 38.9713 97.474L102.193 32.6698C103.399 31.4346 105.376 31.4106 106.611 32.6169L107.779 33.7566C109.015 34.9628 109.039 36.9398 107.832 38.1751L44.6107 102.979C43.411 104.213 41.434 104.237 40.1922 103.032Z" fill="#FF847B"/>
<path d="M17.1112 77.284C18.3835 76.9415 19.1372 75.6326 18.7948 74.3603C18.4523 73.0881 17.1433 72.3343 15.8711 72.6768C14.5989 73.0193 13.8451 74.3282 14.1876 75.6005C14.53 76.8727 15.839 77.6264 17.1112 77.284Z" fill="#FECEA8"/>
<path d="M22.0938 72.0889C23.366 71.7465 24.1198 70.4375 23.7773 69.1653C23.4348 67.893 22.1259 67.1393 20.8536 67.4817C19.5814 67.8242 18.8277 69.1332 19.1701 70.4054C19.5126 71.6776 20.8215 72.4314 22.0938 72.0889Z" fill="#FECEA8"/>
<path d="M27.0764 66.8937C28.3486 66.5513 29.1024 65.2423 28.7599 63.9701C28.4174 62.6978 27.1085 61.9441 25.8362 62.2865C24.564 62.629 23.8103 63.938 24.1527 65.2102C24.4952 66.4824 25.8041 67.2362 27.0764 66.8937Z" fill="#FECEA8"/>
<path d="M32.0605 61.7051C33.3328 61.3626 34.0865 60.0536 33.744 58.7814C33.4016 57.5092 32.0926 56.7554 30.8204 57.0979C29.5481 57.4403 28.7944 58.7493 29.1369 60.0215C29.4793 61.2938 30.7883 62.0475 32.0605 61.7051Z" fill="#FECEA8"/>
<path d="M37.0432 56.51C38.3155 56.1675 39.0692 54.8586 38.7268 53.5863C38.3843 52.3141 37.0753 51.5604 35.8031 51.9028C34.5309 52.2453 33.7771 53.5542 34.1196 54.8265C34.462 56.0987 35.771 56.8525 37.0432 56.51Z" fill="#FECEA8"/>
<path d="M42.0255 51.3149C43.2978 50.9725 44.0515 49.6635 43.7091 48.3913C43.3666 47.119 42.0576 46.3653 40.7854 46.7077C39.5132 47.0502 38.7594 48.3592 39.1019 49.6314C39.4443 50.9036 40.7533 51.6574 42.0255 51.3149Z" fill="#FECEA8"/>
<path d="M47.0147 46.1179C48.2869 45.7755 49.0407 44.4665 48.6982 43.1942C48.3557 41.922 47.0468 41.1683 45.7745 41.5107C44.5023 41.8532 43.7486 43.1622 44.091 44.4344C44.4335 45.7066 45.7424 46.4604 47.0147 46.1179Z" fill="#FECEA8"/>
<path d="M51.9974 40.9228C53.2696 40.5803 54.0234 39.2714 53.6809 37.9991C53.3385 36.7269 52.0295 35.9731 50.7573 36.3156C49.485 36.6581 48.7313 37.967 49.0737 39.2393C49.4162 40.5115 50.7252 41.2652 51.9974 40.9228Z" fill="#FECEA8"/>
<path d="M56.9798 35.7277C58.252 35.3853 59.0057 34.0763 58.6633 32.804C58.3208 31.5318 57.0119 30.7781 55.7396 31.1205C54.4674 31.463 53.7137 32.772 54.0561 34.0442C54.3986 35.3164 55.7075 36.0702 56.9798 35.7277Z" fill="#FECEA8"/>
<path d="M61.9641 30.5391C63.2364 30.1967 63.9901 28.8877 63.6477 27.6154C63.3052 26.3432 61.9962 25.5895 60.724 25.9319C59.4518 26.2744 58.698 27.5834 59.0405 28.8556C59.3829 30.1278 60.6919 30.8816 61.9641 30.5391Z" fill="#FECEA8"/>
<path d="M66.9466 25.3438C68.2189 25.0013 68.9726 23.6924 68.6301 22.4201C68.2877 21.1479 66.9787 20.3942 65.7065 20.7366C64.4342 21.0791 63.6805 22.388 64.023 23.6603C64.3654 24.9325 65.6744 25.6863 66.9466 25.3438Z" fill="#FECEA8"/>
<path d="M71.9292 20.1487C73.2015 19.8062 73.9552 18.4972 73.6127 17.225C73.2703 15.9528 71.9613 15.199 70.6891 15.5415C69.4169 15.8839 68.6631 17.1929 69.0056 18.4651C69.348 19.7374 70.657 20.4911 71.9292 20.1487Z" fill="#FECEA8"/>
<path d="M76.9184 14.9517C78.1906 14.6093 78.9443 13.3003 78.6019 12.028C78.2594 10.7558 76.9505 10.0021 75.6782 10.3445C74.406 10.687 73.6522 11.996 73.9947 13.2682C74.3372 14.5404 75.6461 15.2942 76.9184 14.9517Z" fill="#FECEA8"/>
<path d="M43.9434 101.917C45.2156 101.574 45.9694 100.265 45.6269 98.993C45.2845 97.7208 43.9755 96.967 42.7032 97.3095C41.431 97.652 40.6773 98.9609 41.0197 100.233C41.3622 101.505 42.6712 102.259 43.9434 101.917Z" fill="#FECEA8"/>
<path d="M48.9277 96.7281C50.1999 96.3857 50.9537 95.0767 50.6112 93.8045C50.2688 92.5322 48.9598 91.7785 47.6876 92.121C46.4153 92.4634 45.6616 93.7724 46.004 95.0446C46.3465 96.3169 47.6555 97.0706 48.9277 96.7281Z" fill="#FECEA8"/>
<path d="M53.9103 91.5329C55.1825 91.1905 55.9363 89.8815 55.5938 88.6093C55.2514 87.337 53.9424 86.5833 52.6702 86.9258C51.3979 87.2682 50.6442 88.5772 50.9866 89.8494C51.3291 91.1217 52.6381 91.8754 53.9103 91.5329Z" fill="#FECEA8"/>
<path d="M58.8929 86.3379C60.1651 85.9954 60.9188 84.6865 60.5764 83.4142C60.2339 82.142 58.9249 81.3882 57.6527 81.7307C56.3805 82.0732 55.6267 83.3821 55.9692 84.6544C56.3116 85.9266 57.6206 86.6803 58.8929 86.3379Z" fill="#FECEA8"/>
<path d="M63.8753 81.1427C65.1476 80.8003 65.9013 79.4913 65.5589 78.2191C65.2164 76.9469 63.9074 76.1931 62.6352 76.5356C61.363 76.878 60.6092 78.187 60.9517 79.4592C61.2941 80.7315 62.6031 81.4852 63.8753 81.1427Z" fill="#FECEA8"/>
<path d="M68.8645 75.9458C70.1367 75.6034 70.8904 74.2944 70.548 73.0222C70.2055 71.75 68.8966 70.9962 67.6243 71.3387C66.3521 71.6811 65.5984 72.9901 65.9408 74.2623C66.2833 75.5346 67.5922 76.2883 68.8645 75.9458Z" fill="#FECEA8"/>
<path d="M73.847 70.7505C75.1192 70.4081 75.8729 69.0991 75.5305 67.8269C75.188 66.5546 73.879 65.8009 72.6068 66.1434C71.3346 66.4858 70.5808 67.7948 70.9233 69.067C71.2657 70.3393 72.5747 71.093 73.847 70.7505Z" fill="#FECEA8"/>
<path d="M78.8315 65.5619C80.1037 65.2194 80.8575 63.9105 80.515 62.6382C80.1726 61.366 78.8636 60.6122 77.5914 60.9547C76.3191 61.2972 75.5654 62.6061 75.9079 63.8784C76.2503 65.1506 77.5593 65.9043 78.8315 65.5619Z" fill="#FECEA8"/>
<path d="M83.8138 60.3669C85.086 60.0244 85.8398 58.7154 85.4973 57.4432C85.1549 56.171 83.8459 55.4172 82.5737 55.7597C81.3014 56.1021 80.5477 57.4111 80.8902 58.6834C81.2326 59.9556 82.5416 60.7093 83.8138 60.3669Z" fill="#FECEA8"/>
<path d="M88.7965 55.1717C90.0687 54.8293 90.8225 53.5203 90.48 52.2481C90.1375 50.9758 88.8286 50.2221 87.5563 50.5646C86.2841 50.907 85.5304 52.216 85.8728 53.4882C86.2153 54.7605 87.5242 55.5142 88.7965 55.1717Z" fill="#FECEA8"/>
<path d="M93.7788 49.9764C95.0511 49.634 95.8048 48.325 95.4624 47.0528C95.1199 45.7805 93.8109 45.0268 92.5387 45.3692C91.2665 45.7117 90.5127 47.0207 90.8552 48.2929C91.1976 49.5651 92.5066 50.3189 93.7788 49.9764Z" fill="#FECEA8"/>
<path d="M98.768 44.7796C100.04 44.4371 100.794 43.1282 100.452 41.8559C100.109 40.5837 98.8001 39.83 97.5279 40.1724C96.2557 40.5149 95.5019 41.8238 95.8444 43.0961C96.1868 44.3683 97.4958 45.122 98.768 44.7796Z" fill="#FECEA8"/>
<path d="M103.751 39.5845C105.023 39.2421 105.777 37.9331 105.434 36.6609C105.092 35.3886 103.783 34.6349 102.51 34.9773C101.238 35.3198 100.484 36.6288 100.827 37.901C101.169 39.1732 102.478 39.927 103.751 39.5845Z" fill="#FECEA8"/>
<g clip-path="url(#clip0_39_241)">
<path d="M118.193 66.5999H87.1625V107.515H118.193V66.5999Z" fill="#FECEA8"/>
<path d="M118.377 67.0204H87.4785C85.996 67.0204 84.7892 65.8328 84.7892 64.361V61.872C84.7892 60.4059 85.996 59.2125 87.4785 59.2125H118.377C119.865 59.2125 121.066 60.4059 121.066 61.872V64.361C121.066 65.8328 119.859 67.0204 118.377 67.0204Z" fill="#FF847B"/>
<path d="M118.744 110.356H87.6107C86.1914 110.356 85.0364 109.214 85.0364 107.81V105.088C85.0364 103.685 86.1914 102.542 87.6107 102.542H118.739C120.158 102.542 121.313 103.685 121.313 105.088V107.81C121.313 109.214 120.164 110.356 118.744 110.356Z" fill="#FF847B"/>
<path d="M118.193 70.5778V98.9909H116.71C114.67 98.9909 113.021 97.7237 113.021 96.1552V73.4134C113.021 71.845 114.67 70.5778 116.71 70.5778H118.193Z" fill="#FF847B"/>
<path d="M100.954 72.8452V95.587C100.954 97.1554 99.3333 98.4226 97.3336 98.4226H87.1625V70.0095H97.3336C99.3333 70.0095 100.954 71.2767 100.954 72.8452Z" fill="#FF847B"/>
<path d="M102.965 65.4634C112.645 65.4634 120.491 63.3008 120.491 60.6331C120.491 57.9655 112.645 55.8029 102.965 55.8029C93.2855 55.8029 85.4387 57.9655 85.4387 60.6331C85.4387 63.3008 93.2855 65.4634 102.965 65.4634Z" fill="#FF847B"/>
<path d="M103.252 113.197C113.091 113.197 121.066 111.035 121.066 108.367C121.066 105.7 113.091 103.537 103.252 103.537C93.4141 103.537 85.4387 105.7 85.4387 108.367C85.4387 111.035 93.4141 113.197 103.252 113.197Z" fill="#FF847B"/>
<path d="M90.5586 61.099C90.7654 62.1787 90.0414 63.2187 88.9381 63.463C87.8405 63.7074 86.7315 63.0709 86.4557 62.0083C86.1798 60.9456 86.8981 59.8375 88.0646 59.5818C89.2312 59.3204 90.3517 60.0193 90.5586 61.099Z" fill="#FECEA8"/>
<path d="M96.3624 60.2637C96.4716 61.3548 95.6613 62.3265 94.5465 62.4742C93.4318 62.622 92.3917 61.8889 92.2078 60.8092C92.0296 59.7239 92.8399 58.6896 94.0179 58.5305C95.2016 58.3771 96.2532 59.1726 96.3624 60.2637Z" fill="#FECEA8"/>
<path d="M102.206 59.9398C102.218 61.0365 101.322 61.9344 100.207 61.9855C99.0862 62.0366 98.1151 61.2183 98.0289 60.1216C97.9427 59.0249 98.8391 58.0645 100.029 58.0133C101.218 57.9565 102.195 58.8373 102.206 59.9398Z" fill="#FECEA8"/>
<path d="M108.056 60.1216C107.97 61.2184 106.999 62.0366 105.878 61.9855C104.758 61.9344 103.861 61.0365 103.879 59.9398C103.89 58.843 104.867 57.9622 106.056 58.0134C107.246 58.0588 108.142 59.0249 108.056 60.1216Z" fill="#FECEA8"/>
<path d="M113.877 60.8092C113.699 61.8946 112.653 62.622 111.538 62.4742C110.424 62.3265 109.613 61.3548 109.723 60.2637C109.832 59.1726 110.883 58.3771 112.067 58.5305C113.251 58.6896 114.055 59.7239 113.877 60.8092Z" fill="#FECEA8"/>
<path d="M119.635 62.0026C119.359 63.0652 118.25 63.7017 117.153 63.4573C116.055 63.213 115.325 62.1731 115.532 61.0934C115.739 60.0137 116.86 59.3147 118.026 59.5761C119.193 59.8375 119.911 60.9399 119.635 62.0026Z" fill="#FECEA8"/>
<path d="M115.641 107.134C115.435 106.054 116.159 105.014 117.262 104.77C118.359 104.526 119.468 105.162 119.744 106.225C120.02 107.288 119.302 108.396 118.135 108.651C116.969 108.913 115.848 108.214 115.641 107.134Z" fill="#FECEA8"/>
<path d="M109.832 107.97C109.723 106.878 110.533 105.907 111.648 105.759C112.762 105.611 113.803 106.344 113.986 107.424C114.165 108.509 113.36 109.544 112.176 109.703C110.998 109.856 109.947 109.066 109.832 107.97Z" fill="#FECEA8"/>
<path d="M103.988 108.299C103.976 107.202 104.873 106.304 105.988 106.253C107.108 106.202 108.079 107.02 108.165 108.117C108.252 109.214 107.355 110.174 106.166 110.225C104.976 110.277 104.005 109.396 103.988 108.299Z" fill="#FECEA8"/>
<path d="M98.138 108.117C98.2242 107.02 99.1954 106.202 100.316 106.253C101.436 106.304 102.333 107.202 102.316 108.299C102.304 109.396 101.327 110.277 100.138 110.225C98.9483 110.174 98.0576 109.214 98.138 108.117Z" fill="#FECEA8"/>
<path d="M92.3227 107.43C92.5009 106.344 93.5467 105.617 94.6615 105.765C95.7763 105.912 96.5865 106.884 96.4773 107.975C96.3681 109.066 95.3166 109.862 94.1328 109.708C92.9491 109.549 92.1388 108.509 92.3227 107.43Z" fill="#FECEA8"/>
<path d="M86.5649 106.231C86.8407 105.168 87.9497 104.532 89.0473 104.776C90.1448 105.021 90.8746 106.061 90.6678 107.14C90.4609 108.22 89.3404 108.919 88.1738 108.657C87.0016 108.402 86.289 107.294 86.5649 106.231Z" fill="#FECEA8"/>
</g>
<defs>
<clipPath id="clip0_39_241">
<rect width="36.5238" height="57.3945" fill="white" transform="translate(84.7892 55.8029)"/>
</clipPath>
</defs>
</svg>
