<svg width="40" height="40" viewBox="0 0 40 40" fill="none" xmlns="http://www.w3.org/2000/svg">
<path d="M20.0951 16.2718C18.0576 16.2718 16.3977 17.9317 16.3977 19.9717C16.3977 22.0118 18.0576 23.6716 20.0951 23.6716C22.1351 23.6716 23.795 22.0118 23.795 19.9717C23.795 17.9317 22.1351 16.2718 20.0951 16.2718ZM20.0951 16.2718C18.0576 16.2718 16.3977 17.9317 16.3977 19.9717C16.3977 22.0118 18.0576 23.6716 20.0951 23.6716C22.1351 23.6716 23.795 22.0118 23.795 19.9717C23.795 17.9317 22.1351 16.2718 20.0951 16.2718ZM24.6814 10.4522H15.3186C12.6516 10.4522 10.4805 12.6233 10.4805 15.2903V24.6531C10.4805 27.3227 12.6516 29.4913 15.3186 29.4913H24.6814C27.3484 29.4913 29.5195 27.3227 29.5195 24.6531V15.2903C29.5195 12.6233 27.3484 10.4522 24.6814 10.4522ZM20.0951 25.7477C16.9116 25.7477 14.3217 23.1578 14.3217 19.9717C14.3217 16.7883 16.9116 14.1984 20.0951 14.1984C23.2811 14.1984 25.871 16.7883 25.871 19.9717C25.871 23.1578 23.2811 25.7477 20.0951 25.7477ZM26.2076 15.185C25.4496 15.185 24.833 14.5683 24.833 13.8078C24.833 13.0498 25.4496 12.4332 26.2076 12.4332C26.9681 12.4332 27.5822 13.0498 27.5822 13.8078C27.5822 14.5683 26.9681 15.185 26.2076 15.185ZM20.0951 16.2718C18.0576 16.2718 16.3977 17.9317 16.3977 19.9717C16.3977 22.0118 18.0576 23.6716 20.0951 23.6716C22.1351 23.6716 23.795 22.0118 23.795 19.9717C23.795 17.9317 22.1351 16.2718 20.0951 16.2718ZM20.0951 16.2718C18.0576 16.2718 16.3977 17.9317 16.3977 19.9717C16.3977 22.0118 18.0576 23.6716 20.0951 23.6716C22.1351 23.6716 23.795 22.0118 23.795 19.9717C23.795 17.9317 22.1351 16.2718 20.0951 16.2718ZM20.0951 16.2718C18.0576 16.2718 16.3977 17.9317 16.3977 19.9717C16.3977 22.0118 18.0576 23.6716 20.0951 23.6716C22.1351 23.6716 23.795 22.0118 23.795 19.9717C23.795 17.9317 22.1351 16.2718 20.0951 16.2718Z" fill="white"/>
<path d="M20 0C8.95426 0 0 8.95426 0 20C0 31.0457 8.95426 40 20 40C31.0457 40 40 31.0457 40 20C40 8.95426 31.0457 0 20 0ZM31.7266 24.6531C31.7266 28.538 28.5663 31.6984 24.6814 31.6984H15.3186C11.4337 31.6984 8.27338 28.538 8.27338 24.6531V15.2903C8.27338 11.408 11.4337 8.24769 15.3186 8.24769H24.6814C28.5663 8.24769 31.7266 11.408 31.7266 15.2903V24.6531Z" fill="white"/>
</svg>
