<svg viewBox="0 0 142 133" fill="none" xmlns="http://www.w3.org/2000/svg">
<path d="M52.6738 111.348L25.8238 89.0286C23.6774 87.2435 23.5118 84.0786 25.4554 81.9577L79.6324 23.189C81.5795 21.0784 84.905 20.8105 87.0624 22.5921L113.92 44.8973C116.066 46.6824 116.232 49.8472 114.288 51.9681L60.1038 110.751C58.1567 112.861 54.8312 113.129 52.6738 111.348Z" fill="#FECEA8"/>
<path d="M51.6079 99.0831L38.6368 88.3113C35.5431 85.7408 35.3084 81.1831 38.1088 78.1308L75.5301 37.5238C78.3339 34.4817 83.1229 34.0995 86.2276 36.6665L99.1987 47.4383C102.292 50.0088 102.527 54.5665 99.7268 57.6188L62.3054 98.2258C59.4907 101.271 54.7017 101.654 51.6079 99.0831Z" fill="#FDA55D"/>
<path d="M17.99 82.5206L16.0633 80.926C13.8849 79.1171 13.7201 75.9178 15.6932 73.7758L70.2229 14.6061C72.196 12.4641 75.5577 12.1958 77.7361 14.0047L79.6628 15.5993C81.8412 17.4082 82.006 20.6075 80.0329 22.7495L25.5032 81.9192C23.5301 84.0612 20.1574 84.3331 17.99 82.5206Z" fill="#FDA55D"/>
<path d="M62.4873 119.502L60.4579 117.815C58.3115 116.03 58.1493 112.875 60.0963 110.765L116.392 49.6695C118.339 47.5589 121.653 47.2945 123.8 49.0797L125.829 50.7662C127.976 52.5513 128.138 55.7058 126.191 57.8164L69.903 118.898C67.9593 121.019 64.6447 121.283 62.4873 119.502Z" fill="#FDA55D"/>
<path d="M22.183 81.0211C24.2958 80.3287 25.4793 78.1521 24.8263 76.1595C24.1734 74.167 21.9312 73.1129 19.8184 73.8053C17.7056 74.4977 16.5221 76.6743 17.1751 78.6668C17.8281 80.6594 20.0702 81.7134 22.183 81.0211Z" fill="#FECEA8"/>
<path d="M30.2195 72.1548C32.3323 71.4624 33.5158 69.2858 32.8628 67.2933C32.2099 65.3007 29.9677 64.2467 27.8549 64.939C25.7421 65.6314 24.5586 67.808 25.2116 69.8006C25.8646 71.7931 28.1067 72.8472 30.2195 72.1548Z" fill="#FECEA8"/>
<path d="M38.2561 63.2885C40.369 62.5961 41.5524 60.4195 40.8994 58.4269C40.2465 56.4343 38.0044 55.3803 35.8915 56.0727C33.7787 56.7651 32.5953 58.9417 33.2482 60.9342C33.9012 62.9268 36.1433 63.9808 38.2561 63.2885Z" fill="#FECEA8"/>
<path d="M46.2962 54.4325C48.409 53.7401 49.5925 51.5635 48.9395 49.571C48.2865 47.5784 46.0444 46.5244 43.9316 47.2167C41.8187 47.9091 40.6353 50.0857 41.2883 52.0783C41.9412 54.0709 44.1834 55.1249 46.2962 54.4325Z" fill="#FECEA8"/>
<path d="M54.3327 45.566C56.4455 44.8737 57.629 42.6971 56.976 40.7045C56.323 38.7119 54.0809 37.6579 51.9681 38.3503C49.8552 39.0427 48.6718 41.2192 49.3248 43.2118C49.9777 45.2044 52.2199 46.2584 54.3327 45.566Z" fill="#FECEA8"/>
<path d="M62.3692 36.6998C64.482 36.0074 65.6654 33.8308 65.0125 31.8382C64.3595 29.8457 62.1174 28.7916 60.0046 29.484C57.8917 30.1764 56.7083 32.353 57.3613 34.3456C58.0142 36.3381 60.2564 37.3922 62.3692 36.6998Z" fill="#FECEA8"/>
<path d="M70.417 27.83C72.5299 27.1376 73.7133 24.961 73.0603 22.9684C72.4074 20.9758 70.1652 19.9218 68.0524 20.6142C65.9396 21.3066 64.7561 23.4832 65.4091 25.4757C66.0621 27.4683 68.3042 28.5223 70.417 27.83Z" fill="#FECEA8"/>
<path d="M68.7105 117.291C70.8233 116.598 72.0068 114.422 71.3538 112.429C70.7008 110.437 68.4587 109.383 66.3459 110.075C64.233 110.767 63.0496 112.944 63.7026 114.937C64.3555 116.929 66.5977 117.983 68.7105 117.291Z" fill="#FECEA8"/>
<path d="M76.7504 108.435C78.8632 107.743 80.0467 105.566 79.3937 103.573C78.7407 101.581 76.4986 100.527 74.3858 101.219C72.273 101.911 71.0895 104.088 71.7425 106.081C72.3955 108.073 74.6376 109.127 76.7504 108.435Z" fill="#FECEA8"/>
<path d="M84.787 99.5686C86.8998 98.8762 88.0833 96.6996 87.4303 94.707C86.7774 92.7144 84.5352 91.6604 82.4224 92.3528C80.3096 93.0452 79.1261 95.2217 79.7791 97.2143C80.4321 99.2069 82.6742 100.261 84.787 99.5686Z" fill="#FECEA8"/>
<path d="M92.8235 90.7023C94.9363 90.0099 96.1198 87.8333 95.4668 85.8407C94.8139 83.8482 92.5717 82.7941 90.4589 83.4865C88.3461 84.1789 87.1626 86.3555 87.8156 88.3481C88.4686 90.3406 90.7107 91.3947 92.8235 90.7023Z" fill="#FECEA8"/>
<path d="M100.86 81.8358C102.973 81.1434 104.156 78.9669 103.503 76.9743C102.85 74.9817 100.608 73.9277 98.4955 74.6201C96.3827 75.3124 95.1993 77.489 95.8522 79.4816C96.5052 81.4742 98.7473 82.5282 100.86 81.8358Z" fill="#FECEA8"/>
<path d="M108.908 72.966C111.021 72.2736 112.204 70.097 111.551 68.1044C110.898 66.1118 108.656 65.0578 106.543 65.7502C104.43 66.4426 103.247 68.6191 103.9 70.6117C104.553 72.6043 106.795 73.6583 108.908 72.966Z" fill="#FECEA8"/>
<path d="M116.944 64.0997C119.057 63.4073 120.241 61.2307 119.588 59.2381C118.935 57.2456 116.693 56.1915 114.58 56.8839C112.467 57.5763 111.283 59.7529 111.936 61.7455C112.589 63.738 114.832 64.7921 116.944 64.0997Z" fill="#FECEA8"/>
<path d="M53.7936 72.8425C54.3185 72.8189 54.8024 73.0028 55.231 73.3874L63.9487 81.0783C64.3916 81.4696 64.6235 81.9187 64.6519 82.4117C64.6694 82.9083 64.4891 83.3554 64.0893 83.7604C63.6188 84.2456 63.0968 84.4624 62.5373 84.4174L51.6016 83.8459L56.779 88.4162C57.2219 88.8076 57.4614 89.2428 57.4898 89.7358C57.5182 90.2287 57.3379 90.6759 56.9271 91.0845C56.5273 91.4895 56.0775 91.7054 55.5493 91.7187C55.0211 91.732 54.5481 91.5445 54.0942 91.1567L45.3766 83.4658C44.948 83.0812 44.7194 82.6424 44.691 82.1494C44.6736 81.6529 44.8538 81.2057 45.2503 80.7904C45.6947 80.3366 46.2168 80.1198 46.7837 80.1509L57.7018 80.7054L52.5244 76.135C52.0815 75.7437 51.853 75.3049 51.8246 74.8119C51.7995 74.3293 51.9907 73.8785 52.3906 73.4735C52.8048 73.0752 53.2688 72.8661 53.7936 72.8425Z" fill="#FECEA8"/>
<path d="M56.4278 92.6636C56.1545 92.7531 55.8568 92.805 55.5565 92.8121C54.7314 92.8428 53.9715 92.5553 53.3087 91.9734L44.5911 84.2825C43.9461 83.7177 43.5902 83.001 43.5572 82.2356C43.5284 81.4459 43.8277 80.6972 44.4351 80.0758C45.1239 79.3706 45.9781 79.0222 46.9026 79.0731L54.5811 79.4563L51.739 76.9517C51.0762 76.3699 50.7271 75.6738 50.6907 74.8981C50.6544 74.1223 50.9646 73.37 51.572 72.7486C52.1793 72.1272 52.9359 71.7765 53.772 71.7423C54.5971 71.7116 55.368 71.9955 56.013 72.5603L64.7306 80.2512C65.3824 80.8367 65.7493 81.5498 65.7822 82.3152C65.811 83.1049 65.5117 83.8536 64.9044 84.475C63.9971 85.4001 63.0392 85.5428 62.3965 85.5023L54.7365 85.1016L57.5643 87.5995C58.2271 88.1814 58.5838 88.8636 58.6277 89.6254C58.6783 90.4079 58.3714 91.1705 57.7456 91.8094C57.371 92.2175 56.9197 92.5024 56.4278 92.6636ZM46.4756 81.2792C46.3663 81.315 46.2453 81.3889 46.1117 81.5354C45.8858 81.7693 45.8565 81.9387 45.8677 82.0834C45.8754 82.2179 45.9177 82.4209 46.2049 82.6693L54.9225 90.3601C55.2273 90.6255 55.4402 90.6471 55.5849 90.6454C55.7295 90.6436 55.9112 90.6069 56.1371 90.3731C56.374 90.1356 56.3957 89.9801 56.377 89.8493C56.3693 89.7148 56.316 89.5154 56.0078 89.2397L48.4809 82.5969L62.6528 83.3293C62.7756 83.3347 62.9632 83.3532 63.2816 83.032C63.5075 82.7981 63.5368 82.6287 63.5256 82.4839C63.5179 82.3495 63.4756 82.1465 63.1707 81.8811L54.4531 74.1902C54.1803 73.9486 53.9641 73.9167 53.8118 73.9323C53.6562 73.9377 53.4746 73.9744 53.2377 74.2118C53.0117 74.4457 52.9934 74.6115 52.9978 74.7356C53.0022 74.8597 53.0445 75.0628 53.3493 75.3282L60.8762 81.9709L46.722 81.2555C46.6354 81.2497 46.5631 81.2506 46.4756 81.2792Z" fill="#FECEA8"/>
<path d="M68.6837 78.1683C68.2203 78.1946 67.7582 78.0035 67.3153 77.6122L58.5977 69.9213C58.1547 69.5299 57.922 69.1153 57.9181 68.66C57.9066 68.2186 58.123 67.771 58.5489 67.3346L63.9562 61.7842C64.4005 61.3304 64.8443 61.0594 65.2615 61.0026C65.6895 60.9422 66.0842 61.0754 66.4564 61.3986C67.2396 62.0895 67.1775 62.8974 66.2737 63.8329L62.3331 67.8753L64.5125 69.798L68.1456 66.0732C69.0529 65.1481 69.8947 65.0206 70.6602 65.6944C71.0324 66.0176 71.2011 66.3847 71.1663 66.7957C71.1315 67.2066 70.8865 67.6408 70.4421 68.0946L66.809 71.8194L69.1905 73.9156L73.131 69.8732C74.0383 68.948 74.8801 68.8206 75.6633 69.5114C76.0355 69.8346 76.2042 70.2017 76.1694 70.6126C76.1346 71.0235 75.8896 71.4577 75.4452 71.9115L70.0379 77.462C69.6045 77.9122 69.1472 78.142 68.6837 78.1683Z" fill="#FECEA8"/>
<path d="M69.4429 79.118C69.2025 79.1968 68.9628 79.2411 68.713 79.2544C67.9274 79.295 67.1961 79.021 66.53 78.4288L57.8124 70.7379C57.1462 70.1457 56.7929 69.4738 56.7777 68.7254C56.7658 67.9873 57.0752 67.2695 57.7195 66.6132L63.1268 61.0628C63.7602 60.41 64.4343 60.0293 65.1273 59.9278C65.668 59.8419 66.4731 59.8977 67.2453 60.5921C68.4925 61.7016 68.4439 63.1787 67.0957 64.5679L63.9439 67.8039L64.4685 68.2598L67.302 65.3451C68.6536 63.9661 70.1943 63.7922 71.4348 64.8811C72.2179 65.572 72.3308 66.3226 72.2827 66.8407C72.2238 67.5106 71.8832 68.1702 71.2498 68.8229L68.4164 71.7377L69.1465 72.3774L72.2983 69.1414C73.6499 67.7624 75.1907 67.5886 76.4488 68.6945C77.232 69.3853 77.3482 70.1463 77.3001 70.6643C77.2488 71.3204 76.9006 71.9939 76.2672 72.6466L70.8599 78.197C70.4155 78.6509 69.9457 78.9532 69.4429 79.118ZM65.3521 62.0915C65.2319 62.1309 65.0302 62.254 64.7782 62.5193L59.3709 68.0697C59.2264 68.2197 59.0551 68.4357 59.0621 68.6047C59.0615 68.7875 59.2451 68.9785 59.3975 69.1112L68.1151 76.802C68.2675 76.9347 68.4881 77.0907 68.6656 77.0783C68.854 77.0622 69.064 76.8906 69.2085 76.7405L74.6158 71.1901C74.9048 70.8899 75.0147 70.6713 75.028 70.5642C75.0322 70.54 75.0338 70.471 74.8746 70.3177C74.6548 70.1271 74.531 70.0079 73.9606 70.5943L69.2237 75.457L65.1908 71.9043L69.6093 67.3628C69.9722 66.9928 70.0166 66.7956 70.0215 66.7369C70.0257 66.7127 70.0273 66.6437 69.8715 66.5007C69.6694 66.3272 69.5456 66.208 68.9752 66.7944L64.5567 71.3359L60.7259 67.9567L65.4628 63.094C66.0332 62.5075 65.8984 62.3919 65.6786 62.2013C65.5119 62.0619 65.443 62.0731 65.4177 62.07C65.3849 62.0807 65.3631 62.0879 65.3521 62.0915Z" fill="#FECEA8"/>
<path d="M82.1685 43.3391C82.2353 42.9519 82.4166 42.6186 82.698 42.3323C83.0424 41.9797 83.4593 41.7746 83.9345 41.7102C84.424 41.6525 84.8582 41.7956 85.2481 42.1359C85.4182 42.2856 85.5935 42.5249 85.7815 42.84L91.5073 53.8857C91.7046 54.2662 91.7497 54.6624 91.6493 55.0948C91.538 55.5308 91.3232 55.9095 90.9897 56.2585C90.6562 56.6075 90.2712 56.8363 89.8307 56.9693C89.3901 57.1023 88.9711 57.0798 88.5554 56.9192L80.4728 53.6776L84.3888 61.1955C84.5752 61.5796 84.6237 61.986 84.52 62.4082C84.4162 62.8303 84.2047 63.2192 83.8754 63.544C83.5386 63.8827 83.157 64.1219 82.7164 64.2549C82.2758 64.3878 81.8569 64.3653 81.4412 64.2047L69.4227 59.6274C69.129 59.5068 68.8899 59.3683 68.6988 59.1912C68.2912 58.8339 68.1165 58.4117 68.1638 57.9282C68.2078 57.4343 68.4057 57.0042 68.7795 56.6305C69.0685 56.3304 69.4241 56.1225 69.8243 56.0142C70.2245 55.9059 70.6325 55.932 71.0517 56.1029L79.6174 59.5628L75.4626 51.5753C75.2653 51.1947 75.2017 50.816 75.2719 50.4392C75.3387 50.052 75.52 49.7186 75.8014 49.4324C76.0828 49.1461 76.4198 48.9557 76.8125 48.8613C77.2052 48.7668 77.6057 48.8068 78.0248 48.9777L86.7068 52.5708L82.3736 44.4819C82.1653 44.105 82.1017 43.7263 82.1685 43.3391Z" fill="#FECEA8"/>
<path d="M83.1306 65.2605C83.0978 65.2713 83.065 65.282 83.0323 65.2927C82.3369 65.4978 81.6362 65.4649 80.9839 65.2106L68.9798 60.64C68.5607 60.4691 68.2004 60.2562 67.9132 60.0078C67.2648 59.4327 66.9493 58.6913 67.0222 57.8798C67.0827 57.1408 67.3981 56.4781 67.95 55.9091C68.3943 55.4553 68.9297 55.1315 69.5301 54.969C70.1851 54.7886 70.864 54.8286 71.523 55.1035L77.176 57.3948L74.4236 52.0983C74.115 51.5259 74.0208 50.9061 74.1327 50.2873C74.2514 49.689 74.524 49.1545 74.9575 48.7042C75.4019 48.2504 75.9331 47.9507 76.5621 47.8017C77.202 47.6491 77.8514 47.7102 78.4961 47.9784L84.1946 50.3346L81.3488 45.0117C81.0368 44.429 80.9317 43.8128 81.0545 43.1903C81.1732 42.5921 81.4459 42.0575 81.8903 41.6037C82.4237 41.0522 83.0785 40.7235 83.8472 40.6314C84.6739 40.5317 85.4313 40.7744 86.062 41.3325C86.3315 41.5638 86.57 41.8852 86.806 42.3101L92.542 53.3867C92.854 53.9694 92.9322 54.6515 92.7649 55.3227C92.6059 55.9456 92.2819 56.5084 91.8115 56.9936C91.3411 57.4788 90.7763 57.8237 90.1356 58.0108C89.4402 58.2158 88.7428 58.1932 88.0906 57.9389L82.9064 55.8594L85.4202 60.6861C85.7238 61.3172 85.7995 61.9545 85.6321 62.6257C85.4841 63.245 85.171 63.8042 84.7082 64.2755C84.2529 64.7329 83.7209 65.0671 83.1306 65.2605ZM70.0384 57.074C69.8635 57.1313 69.724 57.2227 69.5871 57.3589C69.4056 57.5439 69.3108 57.7348 69.2943 57.9799C69.281 58.087 69.2963 58.2076 69.4874 58.3847C69.5902 58.4766 69.7257 58.5577 69.894 58.6281L81.8982 63.1987C82.0774 63.2655 82.2255 63.2741 82.4147 63.2235C82.6585 63.155 82.8678 63.0179 83.0602 62.8293C83.2416 62.6443 83.3583 62.4463 83.4143 62.211C83.462 62.0241 83.4442 61.8588 83.3539 61.6943L78.0456 51.5163L89.0301 55.9302C89.195 55.9903 89.3431 55.9988 89.518 55.9415C89.7618 55.873 89.9711 55.736 90.1635 55.5474C90.3525 55.3484 90.4767 55.1365 90.5403 54.8874C90.5804 54.7144 90.5693 54.5696 90.4968 54.4222L84.7499 43.3492C84.6007 43.0784 84.4946 42.9762 84.4626 42.9525C84.2748 42.7857 84.152 42.7803 84.0468 42.7919C83.8366 42.8152 83.6718 42.9034 83.5164 43.0571C83.3904 43.1897 83.3258 43.325 83.2857 43.498C83.269 43.5948 83.2582 43.7467 83.3763 43.9591L89.1826 54.8072L77.5171 49.9773C77.2663 49.8768 77.1141 49.8924 77.0232 49.9108C76.8559 49.9542 76.7206 50.0214 76.6055 50.1504C76.4795 50.283 76.404 50.4219 76.3748 50.5913C76.3581 50.6881 76.3473 50.84 76.4654 51.0525L82.0258 61.7414L70.5549 57.0988C70.3184 57.0051 70.1805 57.0275 70.0897 57.0458C70.0746 57.0736 70.0602 57.0669 70.0384 57.074Z" fill="#FECEA8"/>
</svg>
