<svg width="25" height="30" viewBox="0 0 25 30" fill="none" xmlns="http://www.w3.org/2000/svg">
<path d="M22.4018 0H2.59821C1.16071 0 0 1.16595 0 2.60993V26.5567C0 28.0007 1.16071 29.1667 2.59821 29.1667H22.4018C23.8393 29.1667 25 28.0007 25 26.5567V2.60993C25 1.16595 23.8393 0 22.4018 0ZM3.70536 3.72207C3.99107 3.4261 4.39286 3.24672 4.83929 3.24672H20.1607C21.0446 3.24672 21.7768 3.9732 21.7768 4.86111C21.7768 5.30955 21.5982 5.71315 21.2946 6.00912C21.0089 6.30509 20.6071 6.48447 20.1607 6.48447H4.83929C3.95536 6.48447 3.22321 5.758 3.22321 4.86111C3.22321 4.42164 3.40179 4.00907 3.70536 3.72207ZM14.0446 10.8702C13.75 11.1662 13.3482 11.3456 12.9018 11.3456H4.83929C3.95536 11.3456 3.22321 10.6191 3.22321 9.72222C3.22321 9.28275 3.40179 8.87018 3.70536 8.58318C3.99107 8.27824 4.39286 8.10783 4.83929 8.10783H12.9018C13.7946 8.10783 14.5179 8.83431 14.5179 9.72222C14.5179 10.1707 14.3393 10.5743 14.0446 10.8702ZM20.1607 12.9689C21.0446 12.9689 21.7768 13.6954 21.7768 14.5833C21.7768 15.0318 21.5982 15.4354 21.2946 15.7313C21.0089 16.0273 20.6071 16.2067 20.1607 16.2067H12.0982C11.2054 16.2067 10.4821 15.4802 10.4821 14.5833C10.4821 14.1439 10.6607 13.7313 10.9554 13.4443C11.25 13.1393 11.6518 12.9689 12.0982 12.9689H20.1607V12.9689ZM3.70536 13.4443C3.99107 13.1393 4.39286 12.9689 4.83929 12.9689H8.0625C8.95536 12.9689 9.67857 13.6954 9.67857 14.5833C9.67857 15.0318 9.5 15.4354 9.20536 15.7313C8.91071 16.0273 8.50893 16.2067 8.0625 16.2067H4.83929C3.95536 16.2067 3.22321 15.4802 3.22321 14.5833C3.22321 14.1439 3.40179 13.7313 3.70536 13.4443ZM21.2946 10.8702C21.0089 11.1662 20.6071 11.3456 20.1607 11.3456H16.9375C16.0446 11.3456 15.3214 10.6191 15.3214 9.72222C15.3214 9.28275 15.5 8.87018 15.7946 8.58318C16.0893 8.27824 16.4911 8.10783 16.9375 8.10783H20.1607C21.0446 8.10783 21.7768 8.83431 21.7768 9.72222C21.7768 10.1707 21.5982 10.5743 21.2946 10.8702ZM21.2946 25.4446C21.0089 25.7495 20.6071 25.9289 20.1607 25.9289H4.83929C3.95536 25.9289 3.22321 25.1935 3.22321 24.3056C3.22321 23.8571 3.40179 23.4535 3.70536 23.1665C3.99107 22.8616 4.39286 22.6822 4.83929 22.6822H20.1607C21.0446 22.6822 21.7768 23.4176 21.7768 24.3056C21.7768 24.754 21.5982 25.1576 21.2946 25.4446ZM21.2946 20.5835C21.0089 20.8884 20.6071 21.0678 20.1607 21.0678H4.83929C3.95536 21.0678 3.22321 20.3324 3.22321 19.4444C3.22321 18.996 3.40179 18.5924 3.70536 18.3054C3.99107 18.0005 4.39286 17.8211 4.83929 17.8211H20.1607C21.0446 17.8211 21.7768 18.5565 21.7768 19.4444C21.7768 19.8929 21.5982 20.2965 21.2946 20.5835Z" fill="white"/>
</svg>
