<svg viewBox="0 0 21 21" fill="none" xmlns="http://www.w3.org/2000/svg">
<path d="M10.5 21C4.71044 21 0 16.2896 0 10.5C0 9.97117 0.429197 9.54197 0.958029 9.54197C1.48686 9.54197 1.91606 9.97117 1.91606 10.5C1.91606 15.2334 5.76657 19.0839 10.5 19.0839C15.2334 19.0839 19.0839 15.2334 19.0839 10.5C19.0839 5.76657 15.2334 1.91606 10.5 1.91606C9.11047 1.91606 7.73168 2.25558 6.51077 2.89708C6.04248 3.1431 5.46307 2.96299 5.21704 2.49471C4.97102 2.02642 5.15113 1.44701 5.61942 1.20099C7.11317 0.415401 8.80161 0 10.5 0C16.2896 0 21 4.71044 21 10.5C21 16.2896 16.2896 21 10.5 21Z"/>
<path d="M10.5 21C4.71044 21 0 16.2896 0 10.5C0 9.97117 0.429197 9.54197 0.958029 9.54197C1.48686 9.54197 1.91606 9.97117 1.91606 10.5C1.91606 15.2334 5.76657 19.0839 10.5 19.0839C15.2334 19.0839 19.0839 15.2334 19.0839 10.5C19.0839 5.76657 15.2334 1.91606 10.5 1.91606C9.11047 1.91606 7.73168 2.25558 6.51077 2.89708C6.04248 3.1431 5.46307 2.96299 5.21704 2.49471C4.97102 2.02642 5.15113 1.44701 5.61942 1.20099C7.11317 0.415401 8.80161 0 10.5 0C16.2896 0 21 4.71044 21 10.5C21 16.2896 16.2896 21 10.5 21Z"/>
<path d="M1.53821 8.30113C1.4516 8.30113 1.36423 8.28964 1.27686 8.26434C0.767954 8.12026 0.472115 7.59066 0.616202 7.08175C0.972589 5.82329 1.55507 4.65602 2.34755 3.61139C2.66715 3.18985 3.26879 3.10785 3.68956 3.42745C4.11109 3.74704 4.1931 4.34792 3.8735 4.76945C3.22587 5.62325 2.74992 6.57668 2.45945 7.60369C2.33989 8.02599 1.95591 8.30113 1.53821 8.30113Z"/>
<path d="M10.51 16.2482C10.1053 16.2482 9.72822 16.0428 9.50902 15.7025L4.27818 7.58606C3.92179 7.03347 4.08121 6.29617 4.6338 5.93978C5.18639 5.58339 5.92369 5.74281 6.28008 6.2954L10.5023 12.8468L14.6586 6.30153C15.0112 5.74664 15.7469 5.58186 16.3026 5.93441C16.8575 6.28697 17.0223 7.02273 16.6697 7.57839L11.5155 15.6948C11.2979 16.0374 10.92 16.2459 10.5146 16.2474C10.513 16.2482 10.5115 16.2482 10.51 16.2482Z"/>
</svg>
