<svg width="40" height="40" viewBox="0 0 40 40" fill="none" xmlns="http://www.w3.org/2000/svg">
<path d="M20 0C8.95421 0 0 8.95421 0 20C0 31.0458 8.95421 40 20 40C31.0458 40 40 31.0458 40 20C40 8.95421 31.0458 0 20 0ZM18.0667 27.9254L20.5088 25.2346L24.4432 32.5382L18.0667 27.9254ZM24.805 32.5382L20.7349 24.5336L14.4601 31.3624C13.4765 31.8598 12.312 31.1475 12.312 30.0396V8.03844C12.312 7.14528 13.3183 6.63652 14.0305 7.15659L31.8146 20.1244C32.7077 20.7688 32.606 22.1368 31.6111 22.6343L22.3629 23.6179" fill="white"/>
</svg>
