<svg class="deal_icon" viewBox="0 0 127 117" fill="none" xmlns="http://www.w3.org/2000/svg">
<g clip-path="url(#clip0_39_367)">
<path d="M96.1712 86.7709L70.4562 74.1358C67.4078 72.6353 66.1464 68.9477 67.6457 65.8914L88.4976 23.3903C90.2625 19.7858 94.6165 18.3019 98.2126 20.0682L121.941 31.7288C125.543 33.4951 127.026 37.8526 125.261 41.4516L104.409 83.9582C102.91 87.0146 99.2251 88.2714 96.1712 86.7709Z" fill="#B6CB9E"/>
<path d="M92.7133 80.5088L77.3994 72.9841C73.2611 70.9521 71.5516 65.9468 73.5876 61.8052L89.3219 29.7301C91.3524 25.5885 96.3537 23.8776 100.492 25.9151L115.806 33.4398C119.944 35.4718 121.654 40.4771 119.618 44.6187L103.883 76.6883C101.853 80.8299 96.8516 82.5408 92.7133 80.5088Z" fill="#D1F0B1"/>
<path d="M110.329 43.5002L95.7507 36.341C94.2458 35.5991 93.6262 33.783 94.362 32.2714C95.1034 30.7654 96.918 30.1453 98.4284 30.8817L113.006 38.0464C114.511 38.7883 115.131 40.6044 114.395 42.116C113.654 43.622 111.834 44.2422 110.329 43.5002Z" fill="#B6CB9E"/>
<path d="M93.5875 77.6295L79.0094 70.4703C77.5046 69.7284 76.8849 67.9123 77.6208 66.4007C78.3621 64.8947 80.1768 64.2746 81.6871 65.011L96.2652 72.1757C97.7701 72.9176 98.3897 74.7337 97.6539 76.2453C96.9125 77.7513 95.0923 78.3714 93.5875 77.6295Z" fill="#B6CB9E"/>
<path d="M105.964 59.308L86.185 49.5908C85.5543 49.2807 85.2943 48.5166 85.6041 47.891C85.9139 47.2598 86.6774 46.9995 87.3026 47.3096L107.081 57.0268C107.712 57.3369 107.972 58.101 107.662 58.7266C107.352 59.3523 106.589 59.6125 105.964 59.308Z" fill="#B6CB9E"/>
<path d="M102.771 62.9347L85.4547 54.4245C84.8296 54.1144 84.5695 53.3559 84.8738 52.7302C85.1836 52.1046 85.9416 51.8443 86.5668 52.1489L103.883 60.659C104.509 60.9691 104.769 61.7277 104.464 62.3533C104.155 62.9845 103.397 63.2392 102.771 62.9347Z" fill="#B6CB9E"/>
<path d="M98.9318 65.2989L85.6428 58.771C85.0121 58.4609 84.7521 57.6968 85.0619 57.0711C85.3717 56.4399 86.1352 56.1797 86.7604 56.4898L100.049 63.0122C100.68 63.3223 100.94 64.0864 100.63 64.712C100.32 65.3488 99.5625 65.609 98.9318 65.2989Z" fill="#B6CB9E"/>
<path d="M99.6621 70.5424L81.8586 61.7996C81.2279 61.4896 80.9679 60.7255 81.2777 60.0943C81.5875 59.4631 82.351 59.2028 82.9817 59.5129L100.78 68.2556C101.41 68.5657 101.67 69.3298 101.361 69.961C101.056 70.5922 100.293 70.8524 99.6621 70.5424Z" fill="#B6CB9E"/>
<path d="M106.683 54.4633L89.9527 46.241C87.7452 45.1558 86.8379 42.487 87.9222 40.2833C89.0066 38.0741 91.6733 37.1661 93.8752 38.2513L110.611 46.4735C112.818 47.5588 113.726 50.2275 112.641 52.4312C111.557 54.6349 108.89 55.5485 106.683 54.4633Z" fill="#B6CB9E"/>
<path d="M99.7285 88.3656L99.7064 88.4099L96.7022 88.7587L93.8364 86.2616L90.9319 85.7743L89.3994 84.0856L84.9125 82.9671L83.1864 81.0347L78.9541 80.0381L75.961 77.4801L72.1823 76.8544L70.0468 74.7891L66.163 74.5455L66.091 74.5123L67.1477 72.3585L99.7285 88.3656Z" fill="#B6CB9E"/>
<path d="M85.3939 111.466L56.6471 95.7795C54.6554 94.6943 53.9251 92.1972 55.0095 90.2039L62.3787 76.6828C63.4631 74.6896 65.9583 73.9587 67.95 75.0439L96.6967 90.7354C98.6884 91.8207 99.4187 94.3178 98.3343 96.3111L90.9651 109.827C89.8752 111.82 87.3856 112.556 85.3939 111.466Z" fill="#B6CB9E"/>
<path d="M81.4437 105.353L63.7951 95.7186C60.4867 93.9136 59.264 89.7609 61.0731 86.4498L62.5171 83.8032C64.3207 80.4922 68.47 79.2685 71.7785 81.0791L89.4271 90.7132C92.7355 92.5183 93.9582 96.6709 92.149 99.982L90.7051 102.629C88.9015 105.94 84.7521 107.163 81.4437 105.353Z" fill="#D1F0B1"/>
<path d="M65.1173 93.5315C66.4434 93.5315 67.5184 92.4557 67.5184 91.1285C67.5184 89.8014 66.4434 88.7255 65.1173 88.7255C63.7912 88.7255 62.7162 89.8014 62.7162 91.1285C62.7162 92.4557 63.7912 93.5315 65.1173 93.5315Z" fill="#B6CB9E"/>
<path d="M85.4326 105.264C86.7586 105.264 87.8337 104.188 87.8337 102.861C87.8337 101.534 86.7586 100.458 85.4326 100.458C84.1065 100.458 83.0315 101.534 83.0315 102.861C83.0315 104.188 84.1065 105.264 85.4326 105.264Z" fill="#B6CB9E"/>
<path d="M99.214 89.6723L98.0854 91.7376L66.2902 74.385L70.163 74.7947L72.2044 76.9486L75.9555 77.7348L78.8379 80.4202L83.026 81.594L84.6691 83.5984L89.1006 84.9106L90.5557 86.6658L93.4381 87.2804L96.1988 89.8938L99.214 89.6723Z" fill="#B6CB9E"/>
</g>
<g clip-path="url(#clip1_39_367)">
<path d="M71.2626 73.1799L42.7645 76.1402C39.3848 76.4888 36.3567 74.0352 36.0028 70.6494L31.0839 23.5649C30.6637 19.5736 33.5637 16.0029 37.5486 15.5883L63.8464 12.858C67.8361 12.4405 71.4075 15.3441 71.8248 19.3307L76.7467 66.4198C77.1006 69.8057 74.6471 72.8283 71.2626 73.1799Z" fill="#B6CB9E"/>
<path d="M65.0058 69.7122L48.0344 71.475C43.449 71.9525 39.3411 68.6207 38.8651 64.0303L35.1509 28.4974C34.6702 23.91 37.998 19.8031 42.5864 19.3303L59.5578 17.5674C64.1433 17.0899 68.2512 20.4218 68.7271 25.0121L72.4384 60.5404C72.9191 65.1278 69.5913 69.2347 65.0058 69.7122Z" fill="#D1F0B1"/>
<path d="M60.2637 29.0005L44.1098 30.682C42.4407 30.853 40.9508 29.6438 40.771 27.9723C40.5987 26.3025 41.8065 24.813 43.4773 24.6343L59.6341 22.9575C61.3032 22.7864 62.7931 23.9957 62.9729 25.6672C63.1452 27.3369 61.9327 28.8295 60.2637 29.0005Z" fill="#B6CB9E"/>
<path d="M64.2165 66.8087L48.0626 68.4901C46.3936 68.6611 44.9036 67.4519 44.7238 65.7804C44.5516 64.1106 45.7593 62.6211 47.4301 62.4424L63.5869 60.7656C65.256 60.5945 66.7459 61.8038 66.9258 63.4753C67.098 65.145 65.8855 66.6376 64.2165 66.8087Z" fill="#B6CB9E"/>
<path d="M64.9655 44.7115L43.0468 46.9893C42.3477 47.0617 41.7214 46.5526 41.6514 45.8579C41.5785 45.1586 42.087 44.5325 42.7814 44.4629L64.7001 42.1852C65.3991 42.1127 66.0254 42.6218 66.0954 43.3165C66.1654 44.0112 65.6569 44.6373 64.9655 44.7115Z" fill="#B6CB9E"/>
<path d="M64.1882 49.48L44.9965 51.4721C44.3022 51.5416 43.6788 51.0372 43.6041 50.3455C43.5341 49.6508 44.038 49.0276 44.7294 48.9534L63.9211 46.9613C64.6155 46.8918 65.2388 47.3962 65.3135 48.0879C65.3864 48.7873 64.8797 49.4058 64.1882 49.48Z" fill="#B6CB9E"/>
<path d="M62.1919 53.5231L47.4654 55.0543C46.7664 55.1267 46.1401 54.6176 46.0701 53.9229C45.9971 53.2236 46.5056 52.5975 47.2 52.5279L61.9235 50.9921C62.6226 50.9196 63.2488 51.4287 63.3188 52.1234C63.3947 52.8274 62.8909 53.4506 62.1919 53.5231Z" fill="#B6CB9E"/>
<path d="M65.5967 57.5769L45.869 59.6307C45.1699 59.7032 44.5436 59.1941 44.4707 58.4947C44.3978 57.7954 44.9063 57.1692 45.6053 57.0968L65.3283 55.0459C66.0274 54.9735 66.6537 55.4826 66.7266 56.1819C66.8043 56.8783 66.2958 57.5045 65.5967 57.5769Z" fill="#B6CB9E"/>
<path d="M63.0004 40.2251L44.4585 42.1495C42.0118 42.4031 39.8251 40.6244 39.5728 38.1814C39.3175 35.7337 41.094 33.5474 43.536 33.2968L62.0826 31.3694C64.5293 31.1158 66.716 32.8945 66.9684 35.3375C67.2207 37.7806 65.4471 39.9715 63.0004 40.2251Z" fill="#B6CB9E"/>
<path d="M75.1235 72.6404L75.1283 72.6897L72.7687 74.5815L69.0141 73.9889L66.2946 75.1195L64.099 74.5032L59.7037 75.9399L57.2146 75.2201L53.0996 76.6247L49.2048 76.0481L45.6713 77.5259L42.7648 76.9111L39.3452 78.7684L39.2666 78.7785L39.0173 76.3924L75.1235 72.6404Z" fill="#B6CB9E"/>
<path d="M75.2544 99.8263L42.5668 101.813C40.3029 101.952 38.3574 100.225 38.2168 97.9598L37.2751 82.5898C37.1345 80.325 38.8599 78.38 41.1238 78.241L73.8144 76.259C76.0783 76.12 78.0238 77.8474 78.1644 80.1122L79.1032 95.4775C79.239 97.7453 77.5213 99.692 75.2544 99.8263Z" fill="#B6CB9E"/>
<path d="M68.66 96.747L48.5898 97.9633C44.828 98.1921 41.5856 95.3239 41.3589 91.5577L41.1758 88.5483C40.9443 84.785 43.8092 81.5436 47.574 81.3194L67.6442 80.1031C71.406 79.8743 74.6483 82.7425 74.8751 86.5087L75.0582 89.5181C75.2897 93.2814 72.4248 96.5228 68.66 96.747Z" fill="#D1F0B1"/>
<path d="M48.5479 95.408C49.6713 94.7033 50.0103 93.2207 49.3051 92.0964C48.5999 90.9721 47.1175 90.6319 45.9941 91.3366C44.8707 92.0412 44.5317 93.5238 45.2369 94.6481C45.9421 95.7724 47.4245 96.1126 48.5479 95.408Z" fill="#B6CB9E"/>
<path d="M71.9921 94.5524C73.1155 93.8477 73.4545 92.3651 72.7493 91.2408C72.0441 90.1165 70.5617 89.7763 69.4383 90.481C68.315 91.1856 67.9759 92.6682 68.6811 93.7925C69.3863 94.9168 70.8687 95.257 71.9921 94.5524Z" fill="#B6CB9E"/>
<path d="M75.382 74.0208L75.5233 76.3701L39.3677 78.5648L42.8662 76.854L45.7401 77.5939L49.3355 76.2668L53.2043 77.0101L57.3759 75.7791L59.8329 76.6039L64.2843 75.3608L66.4496 76.0746L69.218 75.0636L72.9454 75.8106L75.382 74.0208Z" fill="#B6CB9E"/>
</g>
<defs>
<clipPath id="clip0_39_367">
<rect width="71.4963" height="92.643" fill="white" transform="translate(54.506 19.3264)"/>
</clipPath>
<clipPath id="clip1_39_367">
<rect width="71.4963" height="92.643" fill="white" transform="translate(0.128601 38.184) rotate(-32.0976)"/>
</clipPath>
</defs>
</svg>
